<svg width="162" height="50" viewBox="0 0 162 50" fill="none" xmlns="http://www.w3.org/2000/svg">
<path fill-rule="evenodd" clip-rule="evenodd" d="M85.1641 12.5403C85.1641 14.3088 83.7104 15.8361 81.8527 15.8361C79.9951 15.8361 78.5413 14.3891 78.5413 12.5403C78.5413 10.6914 79.9143 9.24445 81.8527 9.24445C83.7911 9.40522 85.1641 10.8522 85.1641 12.5403ZM71.6762 19.1318C71.6762 19.4534 71.6762 19.9357 71.6762 19.9357C71.6762 19.9357 70.1416 17.926 66.8302 17.926C61.3381 17.926 57.0574 22.1061 57.0574 27.8135C57.0574 33.5209 61.2573 37.7009 66.8302 37.7009C70.2224 37.7009 71.6762 35.6109 71.6762 35.6109V36.4952C71.6762 36.8971 71.9992 37.2186 72.4031 37.2186H76.4414V18.4083C76.4414 18.4083 72.7261 18.4083 72.4031 18.4083C71.9992 18.4083 71.6762 18.8103 71.6762 19.1318ZM71.6761 31.1897C70.9492 32.3151 69.4147 33.2798 67.6378 33.2798C64.4072 33.2798 61.9842 31.2701 61.9842 27.8939C61.9842 24.5177 64.4879 22.5081 67.6378 22.5081C69.4147 22.5081 71.03 23.4727 71.6761 24.5981V31.1897ZM79.5106 18.4084H84.3566V37.2187H79.5106V18.4084ZM151.635 17.9261C148.323 17.9261 146.789 19.9357 146.789 19.9357V9.40518H141.943V37.2991C141.943 37.2991 145.658 37.2991 145.981 37.2991C146.385 37.2991 146.708 36.9775 146.708 36.5756V35.6913C146.708 35.6913 148.243 37.7814 151.554 37.7814C157.046 37.7814 161.327 33.6013 161.327 27.8939C161.408 22.1061 157.127 17.9261 151.635 17.9261ZM150.827 33.1993C148.97 33.1993 147.516 32.2347 146.789 31.1093V24.3568C147.516 23.3922 149.131 22.2668 150.827 22.2668C154.058 22.2668 156.481 24.2765 156.481 27.6527C156.481 31.0289 154.058 33.1993 150.827 33.1993ZM139.439 26.1254V37.3794H134.593V26.6881C134.593 23.553 133.624 22.3472 130.878 22.3472C129.424 22.3472 127.89 23.0707 126.92 24.1961V37.299H122.074V18.4083H125.87C126.274 18.4083 126.597 18.7299 126.597 19.1318V19.9357C127.97 18.4887 129.909 17.926 131.766 17.926C133.866 17.926 135.643 18.4887 137.016 19.6945C138.793 21.1415 139.439 22.9099 139.439 26.1254ZM110.363 17.9261C107.052 17.9261 105.517 19.9357 105.517 19.9357V9.40518H100.671V37.2991C100.671 37.2991 104.387 37.2991 104.71 37.2991C105.113 37.2991 105.437 36.9775 105.437 36.5756V35.6913C105.437 35.6913 106.971 37.7814 110.283 37.7814C115.775 37.7814 120.055 33.6013 120.055 27.8939C120.136 22.1061 115.855 17.9261 110.363 17.9261ZM109.556 33.1993C107.698 33.1993 106.244 32.2347 105.517 31.1093V24.3568C106.244 23.3922 107.86 22.2668 109.556 22.2668C112.786 22.2668 115.209 24.2765 115.209 27.6527C115.209 31.0289 112.786 33.1993 109.556 33.1993ZM96.4714 17.926C97.9252 17.926 98.6521 18.1672 98.6521 18.1672V22.5884C98.6521 22.5884 94.6138 21.2218 92.1101 24.1157V37.299H87.2641V18.4083C87.2641 18.4083 90.9793 18.4083 91.3024 18.4083C91.7062 18.4083 92.0293 18.7299 92.0293 19.1318V19.9357C92.9985 18.8907 95.0176 17.926 96.4714 17.926ZM46.3155 35.6109C46.0732 35.0482 45.8309 34.3248 45.5886 33.8424C45.1848 32.9582 44.7809 32.074 44.4579 31.2701L44.3771 31.1897C40.9041 23.7138 37.1889 16.0772 33.2313 8.5209L33.0698 8.19936C32.666 7.47588 32.2621 6.67203 31.8583 5.86817C31.3737 4.98392 30.8891 4.01929 30.0814 3.13505C28.4661 1.1254 26.1239 0 23.7009 0C21.1971 0 18.9357 1.1254 17.2396 2.97428C16.4319 3.93891 15.8666 4.82315 15.382 5.78778C14.9781 6.59164 14.5743 7.3955 14.1705 8.11897L14.0089 8.44051C10.1321 15.9164 6.33611 23.5531 2.86315 31.1093L2.78239 31.1897C2.45932 31.9936 2.05549 32.8778 1.65166 33.7621C1.40936 34.3248 1.16706 34.8875 0.92476 35.5305C0.278628 37.3794 0.036329 39.1479 0.359395 40.9164C0.92476 44.6945 3.42852 47.8296 6.90148 49.1961C8.19374 49.7588 9.56677 50 10.9398 50C11.3436 50 11.8282 49.9196 12.2321 49.9196C13.9282 49.7588 15.6243 49.1961 17.2396 48.2315C19.3395 47.1061 21.2779 45.418 23.4586 43.0064C25.6393 45.418 27.6585 47.0257 29.6776 48.2315C31.3737 49.1961 33.0698 49.7588 34.6851 49.9196C35.089 50 35.5736 50 35.9774 50C37.3504 50 38.8042 49.7588 40.0157 49.1961C43.5694 47.8296 45.9924 44.6141 46.5578 40.9164C47.1232 39.1479 46.9616 37.4598 46.3155 35.6109ZM23.6201 38.1832C20.874 34.807 19.1779 31.5916 18.5318 28.8585C18.2895 27.7331 18.2087 26.6881 18.3702 25.8038C18.451 25 18.7741 24.2765 19.1779 23.7138C20.1471 22.3472 21.7624 21.5434 23.6201 21.5434C25.4777 21.5434 27.1738 22.3472 28.0622 23.7138C28.4661 24.2765 28.7891 25 28.8699 25.8038C29.0314 26.6881 28.9507 27.7331 28.7084 28.8585C28.0622 31.5112 26.2854 34.7267 23.6201 38.1832ZM43.6502 40.5144C43.3271 43.0867 41.5502 45.3376 39.0465 46.3826C37.835 46.8649 36.5427 47.0257 35.2504 46.8649C33.9582 46.7041 32.7467 46.3022 31.4544 45.5787C29.6776 44.6141 27.8199 43.0064 25.72 40.7556C29.0314 36.7363 31.0506 32.9581 31.7775 29.6623C32.1006 28.135 32.1813 26.688 32.0198 25.4019C31.8583 24.1157 31.3737 22.9903 30.6468 22.0257C29.1122 19.7749 26.4469 18.4887 23.5393 18.4887C20.6317 18.4887 17.9664 19.8552 16.4319 22.0257C15.705 22.9903 15.3011 24.1961 15.0588 25.4019C14.8973 26.688 14.8973 28.135 15.3011 29.6623C16.028 32.9581 18.128 36.7363 21.3586 40.7556C19.2587 43.0867 17.4011 44.6141 15.6242 45.5787C14.3319 46.3022 13.0397 46.7041 11.8282 46.8649C10.4551 47.0257 9.16288 46.7845 8.03215 46.3826C5.52839 45.4179 3.8323 43.0867 3.42847 40.5144C3.26693 39.2282 3.3477 38.0224 3.91307 36.5755C4.0746 36.0932 4.3169 35.6109 4.5592 34.9678C4.88226 34.1639 5.28609 33.2797 5.68993 32.4758L5.77069 32.3954C9.24365 24.9195 12.9589 17.2829 16.8357 9.88739L16.9972 9.56585C17.4011 8.84238 17.8049 8.03852 18.2087 7.23466C18.6126 6.4308 19.0972 5.70733 19.5818 5.06424C20.6317 3.85845 22.0855 3.21537 23.6201 3.21537C25.1546 3.21537 26.6084 3.85845 27.6584 5.06424C28.2238 5.70733 28.6276 6.4308 29.0314 7.23466C29.4353 7.95813 29.8391 8.76199 30.2429 9.56585L30.4045 9.88739C34.2005 17.3633 37.9157 24.9999 41.3887 32.3954V32.4758C41.7925 33.2797 42.1156 34.1639 42.5194 34.9678C42.7617 35.5305 43.004 36.0932 43.1656 36.5755C43.7309 37.9421 43.8924 39.2282 43.6502 40.5144Z" fill="white"/>
</svg>
