<svg width="167" height="50" viewBox="0 0 167 50" fill="none" xmlns="http://www.w3.org/2000/svg">
<path fill-rule="evenodd" clip-rule="evenodd" d="M25.0815 24.1322C24.9555 23.9497 24.8279 23.7735 24.7015 23.599C23.9126 22.5094 23.1726 21.4874 23.1726 19.4215V11.405C23.1726 11.1201 23.1744 10.8375 23.1761 10.5575C23.1951 7.50699 23.2122 4.75716 20.9318 2.56198C18.9399 0.661157 15.7032 0 13.2134 0C8.3168 0 2.83924 1.81818 1.67733 7.85124C1.59434 8.5124 2.0093 8.84298 2.42427 8.92562L7.40387 9.42149C7.90183 9.42149 8.23381 8.92562 8.3168 8.5124C8.73177 6.44628 10.4746 5.45455 12.4665 5.45455C13.5454 5.45455 14.7073 5.86777 15.3712 6.77686C16.0045 7.68774 15.9816 8.83623 15.9599 9.92016L15.9599 9.92024C15.956 10.1148 15.9522 10.3072 15.9522 10.4959V11.157C15.5431 11.2023 15.1169 11.246 14.6789 11.2909L14.6786 11.291C11.9178 11.5741 8.68866 11.9053 6.32496 12.9752C3.08822 14.3802 0.764404 17.1901 0.764404 21.405C0.764404 26.6942 4.16713 29.4215 8.48279 29.4215C12.1345 29.4215 14.1263 28.595 16.9481 25.7025C17.0649 25.8716 17.1721 26.0299 17.274 26.1803C17.969 27.2061 18.4159 27.8656 19.9359 29.0909C20.3508 29.2562 20.8488 29.2562 21.1808 29.0083C22.1767 28.0992 24.0855 26.4463 25.0815 25.6198C25.4964 25.2066 25.4134 24.6281 25.0815 24.1322ZM14.9562 21.9008C14.1263 23.3058 12.8814 24.2149 11.3875 24.2149C9.39568 24.2149 8.23377 22.7273 8.23377 20.4959C8.23377 16.1157 12.1345 15.3719 15.8692 15.3719V16.4463L15.8721 16.5159C15.9539 18.4685 16.0225 20.104 14.9562 21.9008ZM82.0692 11.3736L82.0694 11.3736C82.5074 11.3287 82.9336 11.2849 83.3427 11.2397L83.5087 10.6612C83.5087 10.5494 83.5094 10.4364 83.5101 10.3223C83.5169 9.17095 83.5244 7.91972 82.8448 6.94216C82.1808 6.03307 81.0189 5.61985 79.94 5.61985C77.9482 5.61985 76.2053 6.61158 75.7903 8.6777C75.7073 9.09092 75.3754 9.58679 74.8774 9.58679L69.8978 9.09092C69.4828 9.00828 69.0679 8.6777 69.1509 8.01654C70.3128 1.98348 75.7903 0.165302 80.6869 0.165302C83.1767 0.165302 86.4135 0.826459 88.4053 2.72729C90.6858 4.92246 90.6686 7.67229 90.6496 10.7228L90.6496 10.7261C90.6479 11.0051 90.6461 11.2865 90.6461 11.5703V19.5868C90.6461 21.6527 91.3861 22.6747 92.1751 23.7643C92.3014 23.9388 92.429 24.115 92.555 24.2975C92.887 24.7108 92.97 25.2893 92.555 25.6198C91.5591 26.4463 89.6502 28.0992 88.6543 29.0083C88.3223 29.2562 87.8244 29.2562 87.4094 29.0909C85.8894 27.8656 85.4426 27.2061 84.7476 26.1803L84.7462 26.1783L84.7458 26.1778C84.6444 26.0281 84.5377 25.8707 84.4216 25.7025C81.5999 28.5951 79.608 29.4215 75.9563 29.4215C71.6407 29.4215 68.2379 26.6942 68.2379 21.405C68.2379 17.2727 70.4788 14.4628 73.7155 13.0579C76.0792 11.988 79.3084 11.6568 82.0692 11.3736ZM78.861 24.2149C80.2718 24.2149 81.5997 23.3058 82.4297 21.9008C83.3537 20.2139 83.349 18.6693 83.3435 16.871V16.8682C83.343 16.7291 83.3426 16.5886 83.3426 16.4463V15.3719C79.6079 15.3719 75.7072 16.1157 75.7072 20.4959C75.7072 22.7273 76.8691 24.2149 78.861 24.2149ZM35.2066 29.0083H30.061C29.563 28.9256 29.1481 28.5951 29.0651 28.0992V1.73556C29.0651 1.2397 29.4801 0.826472 30.061 0.826472H34.8746C35.3726 0.909117 35.7876 1.2397 35.7876 1.73556V5.20664H35.8705C37.1984 1.90085 39.5223 0.330604 42.676 0.330604C45.8297 0.330604 47.9046 1.90085 49.3155 5.20664C50.5604 1.90085 53.3821 0.330604 56.4529 0.330604C58.6107 0.330604 61.0175 1.2397 62.4284 3.22317C63.8537 5.13917 63.8104 7.78637 63.7696 10.2753V10.2756V10.2759V10.2762V10.2764C63.7629 10.6858 63.7563 11.0908 63.7563 11.4876V28.0992C63.7563 28.5951 63.3413 29.0083 62.7604 29.0083H57.6148C57.1168 29.0083 56.7019 28.5951 56.7019 28.0992V14.1323C56.7019 13.9293 56.7044 13.6781 56.7073 13.3959C56.7208 12.0694 56.7412 10.0595 56.5359 9.17358C56.2039 7.43804 55.042 6.94217 53.5481 6.94217C52.3032 6.94217 50.9753 7.76862 50.4774 9.09093C49.9585 10.272 49.9693 12.1783 49.9775 13.6321C49.9785 13.806 49.9794 13.9734 49.9794 14.1323V28.0992C49.9794 28.5951 49.5644 29.0083 48.9835 29.0083H43.8379C43.3399 29.0083 42.925 28.5951 42.925 28.0992V14.1323C42.925 13.8213 42.9304 13.496 42.936 13.1626C42.9837 10.3058 43.0413 6.85953 39.7712 6.85953C36.1871 6.85953 36.1955 10.7414 36.202 13.7571C36.2022 13.8838 36.2025 14.009 36.2025 14.1323V28.0992C36.2025 28.5951 35.7876 29.0083 35.2066 29.0083ZM115.295 21.9009C112.308 20.248 108.905 19.7521 105.668 19.8348L114.465 7.35544C115.295 6.19841 115.71 5.53725 115.71 4.95874V1.7356C115.71 1.15709 115.295 0.826511 114.714 0.826511H97.7838C97.2858 0.826511 96.8709 1.23973 96.8709 1.7356V5.45461C96.8709 6.03312 97.2858 6.3637 97.8668 6.3637H106.664L96.5389 20.8265C95.9579 21.7356 95.9579 22.81 95.9579 23.3885V27.1901C95.9579 27.7687 96.5389 28.3472 97.1198 28.0166C102.846 24.9587 109.735 25.2893 114.963 28.0166C115.627 28.3472 116.208 27.686 116.208 27.1901V23.1406C116.125 22.81 115.959 22.2315 115.295 21.9009ZM96.6217 34.1323C95.6257 34.2149 95.5427 33.3885 96.3727 32.8099C101.85 28.9256 110.98 30.0827 111.975 31.4876C113.054 32.7273 111.643 41.8182 106.498 46.1157C105.751 46.7769 105.004 46.4463 105.336 45.5372L105.396 45.3887C106.586 42.4272 109.133 36.0894 107.909 34.5455C106.713 33.0367 100.23 33.7406 96.9998 34.0913L96.6217 34.1323ZM69.1509 43.6364C79.8571 43.6364 91.6421 41.405 102.431 36.8595C104.091 36.1157 105.419 37.8513 103.759 39.1736C94.1319 46.1984 80.106 50 68.072 50C51.2244 50 36.0366 43.8017 24.5005 33.4711C23.5876 32.6447 24.4175 31.4876 25.4964 32.1488C37.9454 39.3389 53.2992 43.6364 69.1509 43.6364ZM118.698 14.8761C118.698 6.69424 122.765 0.330604 130.234 0.330604C137.869 0.330604 141.936 6.85953 142.019 15.124C142.019 23.1405 137.454 29.5042 130.234 29.5042C122.765 29.5042 118.698 22.9752 118.698 14.8761ZM126.25 14.2394C126.249 17.5339 126.245 24.1323 130.234 24.1323C134.218 24.1323 134.384 18.5951 134.467 15.2067C134.467 13.0579 134.384 10.3306 133.72 8.26452C133.139 6.44634 131.977 5.70253 130.317 5.70253C126.499 5.70253 126.25 10.8265 126.25 14.0496L126.25 14.2394ZM152.642 5.61986C154.053 2.06614 156.045 0.330604 159.614 0.330604C161.854 0.330604 164.095 1.15705 165.672 3.55374C167 5.61986 167 9.17358 167 11.7356V28.2645C166.917 28.7604 166.502 29.0909 166.004 29.0909H160.859C160.361 29.0909 160.029 28.6777 159.946 28.2645V13.967C159.946 13.7453 159.948 13.5159 159.95 13.2812C159.974 10.4532 160.004 6.85953 156.709 6.85953C155.464 6.85953 154.302 7.68598 153.721 8.92565C152.974 10.4959 152.891 12.1488 152.891 13.8843V28.0166C152.891 28.5124 152.476 28.9256 151.895 28.9256H146.75C146.252 28.9256 145.837 28.5124 145.837 28.0166V1.73556C145.92 1.32234 146.335 0.909117 146.833 0.909117H151.563C151.978 0.909117 152.393 1.2397 152.476 1.65292V5.61986H152.642Z" fill="white"/>
</svg>
