<svg width="132" height="50" viewBox="0 0 132 50" fill="none" xmlns="http://www.w3.org/2000/svg">
<path id="Logo" fill-rule="evenodd" clip-rule="evenodd" d="M129.512 24.2231L129.512 24.2234C129.151 25.5773 127.792 30.6805 123.585 30.6805C121.708 30.6805 120.398 29.2982 119.612 27.6136C125.463 26.3178 127.428 21.7391 127.428 18.629C127.428 15.0006 124.808 13.6616 122.581 13.6616C118.957 13.6616 114.198 17.0308 114.198 23.5533C114.198 24.158 114.242 24.7195 114.286 25.2379C113.019 24.8491 111.928 24.2012 111.186 23.0781C112.277 18.2403 112.103 13.6184 109.832 13.6184C108.566 13.6184 107.475 15.2598 107.475 18.8882C107.475 20.3136 107.867 21.9119 108.61 23.3373C108.129 25.5402 106.558 30.8965 104.506 30.8965C102.083 30.8965 102.417 20.9914 102.549 17.0911V17.0911V17.0909L102.549 17.0902C102.569 16.4928 102.585 16.0364 102.585 15.7781C102.585 14.1799 98.6987 12.5385 97.8691 13.3592C97.5198 13.7048 97.4325 15.8645 97.4325 18.629C97.4325 20.9184 97.6072 23.5965 98.1311 26.1018C97.8691 27.4408 96.6903 30.9397 94.5509 30.9397C91.8165 30.9397 92.462 22.4629 92.7738 18.3679C92.8404 17.4935 92.8918 16.8189 92.8918 16.4693C92.8918 15.0438 89.1806 13.7048 88.2637 14.5687C87.9144 14.9142 87.6525 17.4627 87.6525 21.3935C87.6525 23.0349 87.7398 24.7627 88.0018 26.4042C87.6525 28.132 86.2553 30.9397 84.0286 30.9397C80.4635 30.9397 82.0071 17.4045 82.9686 8.97345L82.9808 8.8669C83.5482 8.78054 84.1592 8.69418 84.7703 8.60781L84.7709 8.60773C84.8956 8.59401 85.0226 8.57948 85.1506 8.56483L85.1527 8.56459L85.1528 8.56457C86.6371 8.39465 88.2637 8.20845 88.2637 9.08288C88.2637 11.2858 89.7482 11.977 90.8397 11.977C92.0622 11.977 93.1101 11.0267 93.1101 9.21246C93.1101 7.44146 91.5383 5.75685 88.7877 5.75685C86.9539 5.75685 85.0765 5.97282 83.2427 6.27519C83.2778 5.89329 83.3129 5.5362 83.3455 5.20474L83.3455 5.20458C83.4345 4.29894 83.5047 3.58467 83.5047 3.07874C83.5047 1.22135 79.6189 -0.59285 78.833 0.184664C78.702 0.314249 78.1781 3.25152 77.6978 7.35507C74.9908 7.87341 72.3275 8.34856 69.6642 8.34856C68.7473 8.34856 68.8783 11.1131 71.9782 11.1131C73.7683 11.1131 75.5584 10.7243 77.3922 10.2491C77.1302 13.1 76.9556 16.2533 76.9556 19.2769C76.9556 21.9982 77.1302 24.374 77.4795 26.4042C77.1302 27.916 76.0387 30.9828 73.9866 30.9828C70.7174 30.9828 71.4676 21.6845 71.812 17.4154C71.8815 16.5531 71.9345 15.896 71.9345 15.5622C71.9345 14.6119 68.3543 12.5385 67.6121 13.2728C67.5248 13.3592 67.4375 13.9639 67.4375 13.9639C67.4375 13.9639 66.9572 13.6184 65.6474 13.6184C60.6264 13.6184 56.6096 19.7521 56.6096 25.3243C56.6096 25.5834 56.6096 25.8426 56.6532 26.1018C55.8673 27.916 53.9026 31.026 50.3661 31.026C48.576 31.026 47.3098 29.8598 46.4366 28.3479C51.9379 26.7929 54.0772 22.0414 54.0772 18.9746C54.0772 15.3894 51.021 13.6184 48.7943 13.6184C44.9084 13.6184 40.6733 17.4627 40.6733 23.942C40.6733 25.8426 41.0226 27.4408 41.6339 28.8231C40.9353 29.903 39.8874 30.9828 38.4466 30.9828C35.1545 30.9828 36.3789 22.0173 36.9278 17.9975C37.0487 17.1125 37.1368 16.4673 37.1368 16.2101C37.1368 15.8645 37.1368 15.1734 36.4819 14.7414C35.8946 14.3133 33.2937 13.8851 31.2515 13.549C30.4094 13.4103 29.6622 13.2873 29.1905 13.1864V12.2361C29.1905 9.64441 27.5751 9.08288 26.4835 9.08288C24.6934 9.08288 24.3442 11.0699 24.3442 11.545C24.3442 12.0202 24.4751 13.7048 26.2652 14.6983C26.2652 19.4929 23.1653 30.8533 14.8697 30.8533C8.58256 30.8533 6.31219 24.4604 6.31219 19.7089C6.31219 11.6746 11.0712 5.49767 14.1275 5.49767C16.0432 5.49767 16.1571 7.33385 16.2714 9.17521C16.3863 11.027 16.5015 12.8841 18.4499 12.8841C21.1569 12.8841 21.5499 10.2923 21.5499 9.08288C21.5499 6.83673 19.1922 2.64679 14.1275 2.64679C6.09389 2.64679 0.156006 12.3225 0.156006 20.616C0.156006 28.6071 5.70094 35 13.4726 35C25.4793 35 28.4483 22.387 29.0595 15.3462C29.3385 15.4228 29.7549 15.5158 30.1839 15.6116L30.184 15.6116C30.9636 15.7857 31.7848 15.969 31.8975 16.0805C32.0367 16.2182 31.9223 17.1806 31.7564 18.5755V18.5755C31.5581 20.2429 31.2862 22.5284 31.2862 24.7627C31.2862 29.903 32.989 34.0497 37.0931 34.0497C39.6691 34.0497 41.7212 32.1923 42.8127 30.7669C44.4718 32.8834 46.8732 33.9633 49.2309 33.9633C53.2913 33.9633 55.9547 31.458 57.2645 29.471C58.3997 32.4947 60.7137 33.9633 62.8094 33.9633C65.7347 33.9633 67.4811 30.0757 67.5685 29.471C68.4417 32.1923 70.4937 34.0497 72.8078 34.0497C75.733 34.0497 77.5231 31.4148 78.2217 29.7734C79.2696 32.5379 80.9287 34.0497 83.33 34.0497C86.0807 34.0497 87.8708 31.5876 88.7003 29.9462C89.5736 32.3651 91.0144 34.0497 93.2847 34.0497C96.341 34.0497 98.2621 30.9396 98.8733 29.3846C99.8775 32.0627 101.449 33.9633 103.894 33.9633C106.601 33.9633 108.959 30.1189 110.356 25.7994C111.491 26.8793 112.976 27.6568 114.766 27.8728C116.119 31.7604 119.307 33.9201 122.669 33.9201C128.519 33.9201 130.789 27.9592 131.051 26.5769C131.401 25.1515 130.047 23.4669 129.611 23.8988C129.594 23.9149 129.563 24.0314 129.512 24.2231ZM48.6196 15.4758C51.0646 15.4758 49.6238 24.7195 45.607 26.2314C45.3014 25.2379 45.1704 24.2876 45.1704 23.5533C45.1267 20.4432 46.3929 15.4758 48.6196 15.4758ZM63.5079 30.1621C59.2292 30.1621 62.2418 15.5189 65.6473 15.5189C67.9177 15.5189 67.5684 30.1621 63.5079 30.1621ZM122.014 15.5622C124.371 15.5622 123.018 25.1084 118.914 25.7131C118.695 24.9356 118.608 24.1581 118.608 23.5533C118.608 20.4433 119.787 15.5622 122.014 15.5622ZM40.889 40.8334H39.4684C39.3796 40.8334 39.2908 40.8783 39.2464 40.9682L36.716 45.237C36.5828 45.3718 36.4941 45.3718 36.4053 45.237L33.9636 40.9682C33.9192 40.8783 33.8305 40.8334 33.7417 40.8334H32.3655C32.1879 40.8334 32.0547 40.9682 32.0547 41.1479V49.6855C32.0547 49.8653 32.1879 50.0001 32.3655 50.0001H33.7417C33.9192 50.0001 34.0524 49.8653 34.0524 49.6855V45.2819C34.0524 45.0123 34.3188 44.8775 34.4964 45.1022L36.4053 48.2476C36.5385 48.4273 36.7604 48.4273 36.8492 48.2476L38.8025 45.1022C38.9801 44.8775 39.2464 45.0123 39.2464 45.2819V49.6855C39.2464 49.8653 39.3796 50.0001 39.5572 50.0001H40.9778C41.1554 50.0001 41.2885 49.8653 41.2885 49.6855V41.1479C41.1998 40.9682 41.0666 40.8334 40.889 40.8334ZM50.8568 40.8334C50.9861 40.8334 51.0723 40.9237 51.1154 41.014L54.6925 49.5937C54.7787 49.7743 54.6494 50.0001 54.4339 50.0001H53.0117C52.8824 50.0001 52.7962 49.9097 52.7531 49.8194L52.1928 48.3744C52.1497 48.2841 52.0635 48.1938 51.9342 48.1938H48.2709C48.1416 48.1938 48.0554 48.2841 48.0123 48.3744L47.4951 49.8194C47.4521 49.9097 47.3659 50.0001 47.2366 50.0001H45.7712C45.5557 50.0001 45.4265 49.7743 45.5127 49.5937L49.1329 41.014C49.176 40.9237 49.2622 40.8334 49.3914 40.8334H50.8568ZM49.2191 46.4328H51.0723C51.2447 46.4328 51.417 46.207 51.3739 46.0264L50.4258 43.5428C50.3396 43.317 49.9948 43.317 49.9086 43.5428L48.9605 46.0264C48.8743 46.207 49.0036 46.4328 49.2191 46.4328ZM76.7993 44.6528C76.7145 44.7427 76.7145 44.9224 76.7993 45.0123L79.8519 49.5507C79.979 49.7305 79.8519 50.0001 79.6399 50.0001H78.0288C77.944 50.0001 77.8592 49.9551 77.8168 49.8653L75.697 46.63C75.6122 46.4952 75.4002 46.4952 75.273 46.63L74.1707 48.0229C74.1707 48.0454 74.1601 48.0791 74.1495 48.1128C74.1389 48.1465 74.1283 48.1802 74.1283 48.2027V49.6855C74.1283 49.8203 74.0435 49.9551 73.8739 49.9551H72.602C72.4749 49.9551 72.3477 49.8653 72.3477 49.6855V41.103C72.3477 40.9682 72.4325 40.8334 72.602 40.8334H73.8739C74.0011 40.8334 74.1283 40.9233 74.1283 41.103V44.6079C74.1283 44.8775 74.4251 45.0123 74.5947 44.7876L77.5201 40.9233C77.5624 40.8783 77.6472 40.8334 77.732 40.8334H79.1735C79.3855 40.8334 79.5127 41.103 79.3855 41.2827L76.7993 44.6528ZM91.343 48.1487H87.1609C86.9867 48.1487 86.856 48.0132 86.856 47.8326V46.4779C86.856 46.2973 86.9867 46.1618 87.1609 46.1618H89.949C90.1232 46.1618 90.2539 46.0263 90.2539 45.8457V44.8523C90.2539 44.6717 90.1232 44.5362 89.949 44.5362H87.1609C86.9867 44.5362 86.856 44.4007 86.856 44.2201V42.9106C86.856 42.7299 86.9867 42.5945 87.1609 42.5945H91.0381C91.2123 42.5945 91.343 42.459 91.343 42.2784V41.1495C91.343 40.9689 91.2123 40.8334 91.0381 40.8334H85.2442C85.0699 40.8334 84.9392 40.9689 84.9392 41.1495V49.684C84.9392 49.8646 85.0699 50.0001 85.2442 50.0001H91.343C91.5173 50.0001 91.6479 49.8646 91.6479 49.684V48.5551C91.6915 48.2841 91.5173 48.1487 91.343 48.1487ZM96.1131 40.8334H103.205C103.335 40.8334 103.466 40.9578 103.379 41.0821V42.1601C103.379 42.2845 103.292 42.4088 103.118 42.4088H100.812C100.681 42.4088 100.551 42.4918 100.551 42.6576V48.918C100.551 49.0423 100.464 49.1667 100.29 49.1667H98.941C98.8105 49.1667 98.68 49.0838 98.68 48.918V42.6576C98.68 42.5332 98.593 42.4088 98.4189 42.4088H96.1131C95.9825 42.4088 95.852 42.3259 95.852 42.1601V41.0821C95.852 40.9578 95.939 40.8334 96.1131 40.8334ZM62.6579 40.8334C65.0622 40.8334 66.4716 42.2713 66.4716 44.2484C66.4716 45.4617 65.9742 46.2705 65.3109 46.8546C65.228 46.9445 65.1866 47.0793 65.228 47.2141L66.3473 49.5956C66.4302 49.7754 66.3058 50.0001 66.0985 50.0001H64.6477C64.5233 50.0001 64.4404 49.9102 64.3989 49.8203L63.4455 47.7533C63.3781 47.6073 63.3108 47.6096 63.1323 47.6156C63.0911 47.6169 63.0439 47.6185 62.9895 47.6185H62.8237H61.8288C61.5801 47.6185 61.5386 47.6635 61.5386 47.8881V49.6855C61.5386 49.8203 61.4557 49.9551 61.2899 49.9551H60.0048C59.8805 49.9551 59.7561 49.8653 59.7561 49.6855V41.1479C59.7561 41.0131 59.839 40.8783 60.0048 40.8783C60.9168 40.8334 61.7873 40.8334 62.6579 40.8334ZM62.4506 45.8761C62.5612 45.8711 62.6717 45.8661 62.7822 45.8661C64.0673 45.7762 64.6477 45.1022 64.6477 44.2484C64.6477 43.2149 63.8186 42.6757 62.7408 42.6308C62.3677 42.5858 62.0775 42.5858 61.7874 42.5858C61.663 42.5858 61.5386 42.6757 61.5386 42.8555V45.5965C61.5386 45.7313 61.6215 45.8661 61.7874 45.8661C62.0084 45.896 62.2295 45.886 62.4506 45.8761Z" fill="white"/>
</svg>
