<svg width="152" height="50" viewBox="0 0 152 50" fill="none" xmlns="http://www.w3.org/2000/svg">
<path fill-rule="evenodd" clip-rule="evenodd" d="M19.5239 17.6194H37.2371C37.2371 17.6194 37.552 18.8892 37.552 21.1114C37.552 31.6669 29.9944 38.7303 19.6813 38.7303C7.95126 38.7303 0 29.1272 0 19.286C0 9.20676 8.42362 -0.0788592 19.3664 0.000505088C27.9475 0.000505088 32.671 5.23855 32.671 5.23855L29.0497 9.04803C29.0497 9.04803 25.5857 5.23855 19.6026 5.23855C11.8875 5.23855 5.74695 11.429 5.74695 19.4448C5.74695 27.6193 12.2024 33.4922 19.6026 33.4922C25.3496 33.4922 31.4902 30.2383 32.12 22.8574H19.5239V17.6194ZM51.6439 13.7305C44.4011 13.7305 39.2053 19.4448 39.2053 26.1114C39.2053 32.9367 44.2437 38.7303 51.8013 38.7303C58.6504 38.7303 64.1612 33.5716 64.1612 26.2701C64.0825 18.0162 57.627 13.7305 51.6439 13.7305ZM51.7226 18.7304C55.2653 18.7304 58.6504 21.6669 58.6504 26.2701C58.6504 30.8732 55.344 33.8097 51.7226 33.8097C47.7863 33.8097 44.7161 30.6351 44.7161 26.1907C44.6373 21.905 47.7076 18.7304 51.7226 18.7304ZM66.2867 26.1114C66.2867 19.4448 71.4826 13.7305 78.7253 13.7305C84.7085 13.7305 91.1639 18.0162 91.2427 26.2701C91.2427 33.5716 85.7319 38.7303 78.8828 38.7303C71.3251 38.7303 66.2867 32.9367 66.2867 26.1114ZM85.7318 26.2701C85.7318 21.6669 82.3466 18.7304 78.804 18.7304C74.789 18.7304 71.7187 21.905 71.7975 26.1907C71.7975 30.6351 74.8677 33.8097 78.804 33.8097C82.4254 33.8097 85.7318 30.8732 85.7318 26.2701ZM105.256 13.8099C98.5642 13.8099 93.3684 19.6828 93.3684 26.2701C93.3684 33.7303 99.4302 38.8096 105.098 38.8096C108.641 38.8096 110.452 37.4604 111.948 35.7938V38.2541C111.948 42.5397 109.35 45.1588 105.413 45.1588C101.635 45.1588 99.7451 42.3017 99.0366 40.7144L94.2343 42.6985C95.8876 46.2699 99.2728 50 105.335 50C111.948 50 116.986 45.7937 116.986 36.9842V14.5242H111.79V16.667C110.373 14.921 108.169 13.8099 105.256 13.8099ZM105.728 18.7304C108.956 18.7304 112.341 21.5876 112.341 26.3494C112.341 31.27 109.035 33.889 105.65 33.889C102.107 33.889 98.8004 30.9525 98.8004 26.4288C98.8792 21.5082 102.264 18.7304 105.728 18.7304ZM128.716 26.1907C128.716 18.7305 133.991 13.7305 140.289 13.7305C145.17 13.7305 148.87 17.0638 150.523 20.8733L151.389 22.9368L134.778 29.9208C135.801 31.8256 137.376 33.7303 140.84 33.7303C143.91 33.7303 145.799 32.0637 146.902 30.3177L151.231 33.2541C149.342 35.7938 146.036 38.7303 140.84 38.7303C134.62 38.7303 128.716 34.0478 128.716 26.1907ZM145.091 21.2701C144.304 19.7622 142.729 18.5718 140.446 18.5718C136.903 18.5718 133.439 22.3019 134.069 25.9526L145.091 21.2701ZM126.276 38.0161H120.844V1.19103H126.276V38.0161Z" fill="white"/>
</svg>
