<svg width="176" height="50" viewBox="0 0 176 50" fill="none" xmlns="http://www.w3.org/2000/svg">
<path fill-rule="evenodd" clip-rule="evenodd" d="M34.0775 8.93163C34.0775 8.93163 37.8476 9.19433 38.0229 9.19433C38.1983 9.19433 38.4613 9.2819 38.4613 9.54459C38.5469 9.80112 43.5651 43.8744 43.8009 45.4758L43.801 45.4766L43.8095 45.5342L43.7939 45.5374L28.6417 48.774L28.6467 48.6712L0.936279 43.5201C0.936279 43.5201 4.44329 15.8494 4.61864 14.9737C4.79002 13.6901 4.87765 13.6609 6.10916 13.2516L6.1968 13.2224C6.37215 13.2224 8.12566 12.697 10.5806 11.9089C11.545 7.88091 14.526 0 20.8386 0C21.6277 0 22.5921 0.525394 23.3812 1.48862H23.5565C26.2745 1.48862 27.7649 3.76532 28.6417 6.30473C29.5184 6.04203 30.1322 5.8669 30.1322 5.8669C30.1601 5.8669 30.1992 5.86468 30.2462 5.862C30.3761 5.85461 30.5667 5.84376 30.7504 5.86685C30.8944 5.8681 31.0378 5.92784 31.1322 5.99764C31.1463 6.00796 31.1598 6.01899 31.1725 6.03076C31.1766 6.03449 31.1805 6.03823 31.1842 6.04197L31.1843 6.04203L34.0775 8.93163ZM25.7047 7.27069L25.7046 7.2707C25.4093 7.3514 25.1025 7.43526 24.7841 7.53067V7.00527C24.7841 5.42909 24.521 4.20317 24.1703 3.23995C25.6608 3.32752 26.6252 4.99126 27.1513 6.83014C26.7046 6.99743 26.2224 7.1292 25.7047 7.27069ZM23.2058 7.79338C23.2058 5.9545 22.9428 4.55345 22.5921 3.59022C21.0139 4.20318 19.2604 5.9545 18.3837 9.54469C20.0495 9.01929 21.7154 8.4939 23.2058 8.05607V7.79338ZM20.6632 1.83885C20.9262 1.83885 21.1893 1.92642 21.4523 2.10155C19.4357 3.06477 17.2439 5.42905 16.3671 10.2452C15.3407 10.5869 14.3143 10.8752 13.3296 11.1519C13.0526 11.2297 12.7789 11.3066 12.5094 11.3835C13.6492 7.70575 16.1918 1.83885 20.6632 1.83885ZM23.6442 17.5131L21.803 23.0297C21.803 23.0297 20.1372 22.1541 18.2083 22.1541C15.3151 22.1541 15.1397 23.9929 15.1397 24.4308C15.1397 25.4385 16.1752 26.198 17.4243 27.1142C19.323 28.5068 21.7154 30.2615 21.7154 33.8003C21.7154 38.4413 18.7344 41.4185 14.789 41.4185C10.0545 41.4185 7.59962 38.4413 7.59962 38.4413L8.82708 34.2381C8.82708 34.2381 11.3697 36.4273 13.4739 36.4273C14.8767 36.4273 15.4027 35.3765 15.4027 34.5008C15.4027 33.0397 14.3546 32.2033 13.1788 31.265C11.677 30.0665 9.96686 28.7018 9.96686 25.6567C9.96686 21.1033 13.2108 16.725 19.8742 16.725C22.4168 16.725 23.6442 17.5131 23.6442 17.5131ZM151.3 19.5271H155.42L154.631 23.8178H150.51L147.354 40.3677H141.392L144.549 23.9054H141.743L142.62 19.4396H145.425L145.601 18.4763C146.039 16.0245 147.003 13.5727 149.02 11.8213C150.598 10.4203 152.702 9.80733 154.807 9.80733C156.998 9.80733 158.051 10.3327 158.051 10.3327L156.911 14.9737C156.911 14.9737 156.034 14.711 154.982 14.711C153.053 14.711 151.826 16.5499 151.475 18.5639L151.3 19.5271ZM82.6497 19.0892C80.0195 19.0892 78.0029 20.3151 76.3371 22.2416H76.2494L78.529 10.2451H72.5671L66.7805 40.5428H72.7424L74.759 30.2101C75.548 26.2696 77.5646 23.9053 79.4057 23.9053C80.7209 23.9053 81.2469 24.781 81.2469 26.0945C81.2469 26.8826 81.1593 27.9334 80.9839 28.7214L78.7043 40.5428H84.7539L87.1212 28.2836C87.3842 26.9701 87.5596 25.4815 87.5596 24.4307C87.4719 21.1032 85.7184 19.0892 82.6497 19.0892ZM61.4323 27.8459C59.9418 27.0578 59.1527 26.3573 59.1527 25.3941C59.1527 24.1681 60.2048 23.3801 61.9583 23.3801C63.8872 23.3801 65.6407 24.1681 65.6407 24.1681L67.0435 19.965C67.0435 19.965 65.816 19.0018 62.046 19.0018C56.8732 19.0018 53.2785 21.979 53.2785 26.0946C53.2785 28.4589 54.9443 30.2977 57.2239 31.5237C59.065 32.5744 59.6788 33.275 59.6788 34.3258C59.6788 35.4641 58.802 36.3398 57.0485 36.3398C54.5059 36.3398 52.2264 35.0263 52.2264 35.0263L50.7359 39.2294C50.7359 39.2294 52.9278 40.7181 56.6101 40.7181C61.9583 40.7181 65.7284 38.0911 65.7284 33.3625C65.6407 30.9983 63.7118 29.247 61.4323 27.8459ZM89.05 32.6619C89.05 25.5691 93.7845 19.0893 100.886 19.0893C106.41 19.0893 108.952 23.0297 108.952 27.408C108.952 34.6759 104.218 40.9807 97.2038 40.9807C91.8556 40.9807 89.05 37.3029 89.05 32.6619ZM97.9929 36.3397C95.9764 36.3397 95.0996 34.5884 95.0996 32.4869C95.0996 29.0718 96.8531 23.5552 100.097 23.5552C102.201 23.5552 102.903 25.394 102.903 27.1454C102.815 30.7355 101.062 36.3397 97.9929 36.3397ZM117.807 22.5919C117.807 22.5919 120.087 19.0893 124.12 19.0893C128.416 19.0893 130.17 22.5919 130.17 26.6199C130.17 33.8879 125.611 40.9807 118.684 40.9807C116.405 40.9807 115.177 40.1926 115.177 40.1926H115.09L113.424 48.9492H107.549L111.583 27.3204C112.109 24.8686 112.547 21.6287 112.81 19.4395H118.07L117.72 22.5919H117.807ZM118.421 36.3397C116.843 36.3397 115.966 35.464 115.966 35.464L116.931 29.9474C117.632 26.2696 119.561 23.8178 121.578 23.8178C123.419 23.8178 123.945 25.4815 123.945 27.0577C124.032 30.9982 121.753 36.3397 118.421 36.3397ZM135.255 13.9229C135.255 11.9965 136.745 10.5079 138.674 10.5079C140.428 10.5079 141.655 11.8214 141.655 13.4851C141.568 15.6743 139.989 16.9002 138.148 16.9002H138.061C136.395 16.9002 135.255 15.6743 135.255 13.9229ZM130.345 40.3678H136.307L140.34 19.352H134.378L130.345 40.3678ZM169.624 19.5272C169.624 19.5272 165.941 28.8967 164.276 33.9755H164.188C164.1 32.3118 162.697 19.5272 162.697 19.5272H156.472L160.067 38.7916C160.155 39.2295 160.067 39.4922 159.979 39.7548C159.278 41.0683 158.138 42.3818 156.735 43.345C155.596 44.1331 154.368 44.6585 153.404 45.0088L155.07 50C156.297 49.7373 158.752 48.7741 160.856 46.7601C163.574 44.2207 166.029 40.2802 168.659 35.0263L175.936 19.5272H169.624Z" fill="white"/>
</svg>
