<svg width="34" height="34" viewBox="0 0 34 34" fill="none" xmlns="http://www.w3.org/2000/svg">
<circle cx="17" cy="17" r="17" fill="#F8F7F7"/>
<path d="M11.4717 19.5389L10.7379 22.2782L8.05604 22.3349C7.25455 20.8483 6.79993 19.1475 6.79993 17.34C6.79993 15.5923 7.22498 13.9441 7.97843 12.4928H7.97901L10.3666 12.9305L11.4126 15.3038C11.1937 15.9421 11.0743 16.6272 11.0743 17.34C11.0744 18.1137 11.2146 18.855 11.4717 19.5389Z" fill="#FBBB00"/>
<path d="M27.6959 15.3711C27.8169 16.0087 27.8801 16.6671 27.8801 17.3401C27.8801 18.0947 27.8007 18.8308 27.6496 19.5408C27.1365 21.9569 25.7958 24.0666 23.9386 25.5596L23.938 25.559L20.9307 25.4055L20.505 22.7485C21.7374 22.0258 22.7005 20.8947 23.2078 19.5408H17.5718V15.3711H27.6959Z" fill="#518EF8"/>
<path d="M23.9381 25.5589L23.9386 25.5595C22.1324 27.0113 19.8379 27.88 17.3402 27.88C13.3263 27.88 9.8365 25.6365 8.05627 22.3349L11.4719 19.5389C12.362 21.9145 14.6536 23.6055 17.3402 23.6055C18.4949 23.6055 19.5767 23.2934 20.505 22.7484L23.9381 25.5589Z" fill="#28B446"/>
<path d="M24.0676 9.22655L20.6531 12.022C19.6924 11.4214 18.5567 11.0745 17.34 11.0745C14.5926 11.0745 12.2582 12.8431 11.4127 15.3038L7.97909 12.4928H7.97852C9.73268 9.11074 13.2665 6.80005 17.34 6.80005C19.8974 6.80005 22.2423 7.71102 24.0676 9.22655Z" fill="#F14336"/>
</svg>
